<?xml version="1.0" standalone="no"?>
<!DOCTYPE svg PUBLIC "-//W3C//DTD SVG 20010904//EN"
 "http://www.w3.org/TR/2001/REC-SVG-20010904/DTD/svg10.dtd">
<svg version="1.0" xmlns="http://www.w3.org/2000/svg"
 width="1440.000000pt" height="1440.000000pt" viewBox="0 0 1440.000000 1440.000000"
 preserveAspectRatio="xMidYMid meet">
<metadata>
Created by potrace 1.11, written by Peter Selinger 2001-2013
</metadata>
<g transform="translate(0.000000,1440.000000) scale(0.100000,-0.100000)"
fill="#000000" stroke="none">
<path d="M6951 12665 c-18 -8 -37 -12 -42 -9 -6 3 -16 0 -24 -6 -8 -6 -19 -9
-25 -5 -5 3 -10 1 -10 -4 0 -6 -10 -11 -23 -11 -13 0 -28 -5 -35 -12 -9 -9
-12 -9 -12 0 0 6 -7 9 -15 6 -8 -4 -12 -11 -8 -18 4 -6 1 -6 -9 2 -13 10 -17
10 -22 -5 -6 -13 -9 -14 -15 -4 -6 10 -12 9 -25 -4 -15 -15 -17 -15 -22 0 -6
14 -9 12 -23 -9 -12 -18 -20 -23 -28 -15 -8 8 -13 7 -18 -2 -6 -8 -4 -10 5 -4
8 5 11 4 6 -3 -4 -6 -13 -9 -20 -6 -7 3 -16 -2 -20 -11 -3 -9 -10 -14 -15 -11
-5 4 -17 -1 -25 -10 -9 -8 -16 -11 -16 -6 0 6 -17 2 -37 -8 -29 -14 -42 -16
-58 -7 -18 9 -19 9 -6 -7 8 -9 9 -16 3 -14 -6 2 -18 -6 -27 -17 -9 -11 -14
-15 -11 -8 7 13 -19 12 -31 -2 -4 -4 -2 -5 5 -1 6 4 12 2 12 -3 0 -6 -7 -11
-15 -11 -8 0 -15 -4 -15 -9 0 -5 -10 -7 -22 -3 -14 3 -19 1 -14 -6 5 -8 2 -10
-8 -6 -11 4 -16 0 -16 -11 0 -9 -5 -13 -10 -10 -6 4 -7 11 -4 17 4 6 -2 6 -15
-1 -25 -14 -28 -23 -4 -14 11 5 14 3 9 -6 -5 -7 -17 -11 -27 -8 -12 3 -19 0
-19 -9 0 -12 -4 -12 -20 -4 -11 6 -19 7 -18 3 5 -13 -37 -50 -50 -45 -7 2 -12
-4 -12 -13 0 -9 -4 -13 -10 -10 -5 3 -10 1 -10 -6 0 -8 -5 -7 -17 2 -15 12
-16 12 -10 -3 4 -12 1 -18 -9 -18 -9 0 -12 -5 -8 -12 4 -6 3 -8 -4 -4 -6 3
-14 1 -17 -5 -4 -5 -13 -8 -21 -5 -8 3 -11 0 -7 -10 5 -13 -13 -19 -40 -15 -4
1 -13 -10 -19 -24 -8 -19 -14 -22 -20 -13 -6 10 -8 10 -8 1 0 -7 -5 -13 -11
-13 -5 0 -7 5 -3 12 4 7 3 8 -5 4 -6 -4 -9 -12 -6 -17 6 -9 -8 -13 -34 -9 -12
1 -12 -1 -3 -13 10 -11 9 -17 -4 -28 -10 -8 -20 -14 -23 -14 -3 0 -5 -4 -3 -8
1 -5 -7 -5 -19 -2 -15 5 -19 4 -15 -4 4 -7 -1 -11 -13 -11 -12 0 -21 -7 -21
-16 0 -8 -5 -12 -10 -9 -6 3 -13 -1 -16 -10 -6 -13 -8 -14 -15 -3 -7 10 -9 9
-9 -4 0 -10 -7 -18 -15 -18 -8 0 -15 -5 -15 -11 0 -5 6 -7 13 -3 7 4 9 3 4 -2
-5 -5 -14 -9 -20 -9 -7 0 -11 -8 -9 -18 2 -11 -2 -15 -13 -11 -8 3 -12 11 -8
17 3 6 1 7 -6 3 -9 -6 -9 -11 0 -22 10 -12 9 -13 -5 -8 -9 3 -16 2 -16 -4 0
-5 -9 -12 -21 -15 -13 -4 -18 -10 -13 -18 4 -8 3 -10 -4 -5 -7 4 -12 1 -12 -8
0 -9 -5 -16 -11 -16 -5 0 -7 5 -4 10 3 6 1 10 -4 10 -10 0 -15 -14 -12 -32 0
-5 -2 -7 -7 -7 -20 3 -32 -2 -26 -12 4 -8 -1 -9 -16 -4 -16 5 -20 4 -15 -5 4
-7 1 -10 -11 -8 -14 2 -19 -3 -18 -19 1 -13 -3 -23 -7 -23 -5 0 -9 5 -9 11 0
5 -4 8 -10 4 -5 -3 -7 -12 -4 -19 3 -9 -2 -13 -17 -12 -12 0 -24 -6 -26 -14
-4 -12 -3 -12 5 -2 7 11 10 11 15 -2 4 -9 3 -15 -1 -15 -19 3 -33 -2 -27 -10
3 -5 1 -12 -5 -16 -5 -3 -10 -1 -10 6 0 8 -4 8 -15 -1 -8 -7 -15 -18 -15 -24
0 -6 5 -4 11 4 9 13 10 13 6 0 -2 -8 -11 -14 -20 -12 -14 2 -48 -40 -36 -45 2
-1 1 -5 -3 -9 -5 -4 -8 -1 -8 6 0 7 -16 -2 -35 -21 -24 -24 -33 -40 -29 -53 5
-15 3 -18 -10 -13 -14 6 -15 3 -5 -16 11 -19 10 -21 -3 -9 -14 11 -16 9 -14
-17 2 -22 -1 -28 -10 -20 -8 7 -13 3 -17 -12 -4 -14 -10 -18 -19 -13 -9 5 -8
2 2 -11 8 -10 10 -16 4 -12 -7 4 -14 0 -18 -8 -3 -8 -1 -15 4 -15 5 0 7 -7 4
-15 -4 -8 -10 -13 -14 -10 -5 3 -6 -5 -2 -17 4 -16 2 -19 -9 -13 -12 7 -12 6
-1 -7 9 -12 10 -18 2 -23 -6 -4 -10 -14 -8 -23 2 -10 -3 -23 -12 -30 -13 -12
-13 -13 0 -7 8 4 6 0 -4 -9 -17 -14 -17 -16 -3 -22 15 -5 14 -8 -6 -25 -14
-12 -17 -18 -8 -19 9 0 10 -4 4 -12 -6 -7 -9 -21 -8 -31 3 -14 0 -15 -9 -8
-10 8 -12 5 -10 -12 1 -12 3 -24 4 -27 5 -12 -3 -46 -13 -59 -8 -9 -8 -12 -1
-8 6 3 11 0 11 -8 0 -8 -4 -12 -8 -10 -4 3 -9 -2 -13 -10 -3 -8 -1 -15 5 -15
6 0 5 -8 -2 -21 -6 -12 -7 -19 -1 -15 6 4 8 -2 5 -14 -3 -11 -9 -18 -12 -15
-4 2 -8 -2 -8 -10 0 -8 5 -11 11 -8 6 4 5 -1 -2 -10 -14 -17 -19 -78 -7 -96 3
-7 0 -8 -10 -5 -11 5 -14 2 -9 -10 4 -9 1 -16 -6 -16 -10 0 -10 -3 -1 -14 9
-10 9 -16 1 -21 -7 -5 -8 -11 -1 -19 6 -7 6 -17 1 -26 -5 -8 -6 -18 -4 -22 3
-4 1 -8 -4 -8 -5 0 -8 -16 -7 -35 0 -19 -2 -35 -5 -35 -3 0 -4 -25 -3 -55 2
-44 -1 -55 -14 -55 -12 0 -13 -3 -4 -14 8 -10 9 -16 1 -21 -7 -4 -7 -12 0 -26
9 -15 7 -19 -5 -19 -9 0 -13 -4 -10 -10 3 -5 1 -19 -5 -30 -7 -13 -7 -20 0
-20 5 0 10 -5 10 -11 0 -5 -6 -7 -12 -3 -9 5 -9 2 1 -9 16 -20 25 -23 15 -4
-4 7 -3 8 2 4 5 -5 14 -26 20 -47 10 -35 10 -39 -8 -43 -20 -6 -22 -36 -3 -49
6 -5 5 -8 -3 -8 -10 0 -10 -3 1 -15 8 -8 14 -28 13 -45 -1 -16 1 -30 5 -30 4
0 8 -15 7 -32 0 -62 23 -110 50 -102 14 5 15 4 2 -5 -11 -8 -12 -13 -3 -22 8
-8 9 -18 3 -30 -7 -11 -7 -20 0 -24 7 -4 7 -13 0 -26 -8 -14 -7 -19 1 -19 9 0
9 -3 0 -14 -8 -10 -9 -16 -1 -21 6 -4 7 -13 2 -23 -7 -15 -8 -37 -2 -44 5 -7
6 -48 0 -48 -8 0 -6 -37 3 -46 3 -4 2 -15 -4 -25 -7 -14 -6 -19 2 -19 9 0 9
-3 0 -14 -9 -10 -9 -16 -1 -21 8 -5 8 -10 0 -20 -8 -10 -8 -15 1 -21 8 -5 9
-3 4 6 -5 9 -4 11 4 6 8 -5 9 -12 2 -20 -7 -9 -6 -19 4 -34 9 -11 12 -23 8
-25 -5 -3 -6 -42 -3 -87 3 -45 1 -84 -3 -87 -4 -3 -3 -11 3 -18 8 -10 7 -14
-2 -18 -10 -4 -10 -6 1 -6 11 -1 11 -4 0 -18 -10 -11 -10 -14 -1 -9 7 4 12 2
12 -4 0 -6 5 -8 10 -5 6 4 10 3 9 -2 -4 -22 2 -43 11 -38 6 3 7 -1 4 -9 -4
-11 0 -16 12 -16 15 0 19 -8 21 -35 1 -19 -3 -35 -8 -35 -6 0 -7 -5 -3 -12 5
-8 2 -9 -9 -5 -10 3 -17 2 -17 -4 0 -6 -4 -7 -10 -4 -5 3 -10 1 -10 -5 0 -6
-5 -8 -12 -4 -8 5 -7 0 2 -11 14 -17 14 -18 -7 -7 -20 11 -21 10 -18 -9 3 -14
0 -19 -9 -16 -19 8 -28 -4 -15 -19 8 -9 4 -12 -15 -10 -19 2 -24 -1 -21 -15 2
-11 -1 -19 -6 -19 -6 0 -7 -4 -4 -10 3 -5 1 -10 -4 -10 -6 0 -11 -5 -11 -11 0
-5 6 -7 13 -4 6 4 3 -1 -8 -10 -14 -12 -16 -19 -8 -22 10 -3 10 -10 2 -25 -10
-19 -21 -88 -21 -135 0 -16 -5 -20 -17 -16 -12 5 -13 3 -4 -7 8 -8 9 -20 3
-36 -6 -16 -6 -24 1 -24 6 0 6 -7 -1 -20 -7 -14 -7 -20 0 -20 5 0 10 -11 10
-24 0 -14 5 -28 11 -31 6 -4 8 -13 5 -21 -3 -7 0 -16 6 -20 7 -5 8 -2 3 7 -8
12 -6 12 8 0 18 -14 13 -36 -5 -25 -7 4 -8 2 -4 -4 4 -6 12 -9 19 -6 8 3 13
-4 14 -17 1 -12 7 -27 14 -33 9 -8 10 -7 4 3 -5 9 -4 12 3 8 5 -4 8 -17 5 -30
-3 -16 -2 -18 5 -9 7 11 10 9 15 -7 3 -12 9 -21 14 -20 19 3 25 -2 14 -15 -9
-11 -6 -13 16 -9 22 3 24 2 9 -5 -18 -8 -16 -10 13 -20 23 -8 31 -16 27 -27
-3 -10 3 -17 19 -21 24 -6 30 -16 25 -39 -1 -5 1 -7 5 -3 10 10 28 -10 48 -54
10 -21 25 -38 33 -38 8 0 13 -4 9 -9 -7 -13 24 -43 37 -35 7 4 8 2 4 -5 -4 -6
-11 -9 -16 -6 -5 3 -12 0 -16 -6 -4 -7 -3 -9 4 -5 5 3 20 -6 32 -21 12 -16 19
-21 15 -13 -4 10 -2 9 8 -2 8 -10 18 -14 22 -10 5 4 5 2 1 -5 -4 -7 -14 -9
-22 -6 -8 3 -1 -9 15 -28 17 -18 31 -37 31 -41 0 -4 7 -5 15 -2 8 4 15 1 15
-6 0 -6 5 -8 10 -5 6 3 10 -1 10 -9 0 -10 6 -13 15 -10 8 4 17 -1 21 -10 5
-12 10 -14 19 -6 10 8 15 8 21 -1 5 -8 3 -9 -6 -4 -9 5 -11 4 -6 -3 5 -9 13
-9 27 -2 10 6 19 7 19 2 0 -5 11 -7 24 -5 30 6 62 -37 57 -79 -1 -17 2 -28 9
-28 10 0 10 -3 1 -14 -10 -12 -8 -17 7 -25 13 -7 18 -19 17 -36 -2 -14 1 -25
7 -25 6 0 8 -9 5 -21 -4 -15 -2 -18 7 -10 8 7 12 5 13 -10 1 -12 -2 -17 -10
-13 -7 4 -8 3 -4 -2 5 -5 13 -9 18 -9 8 0 11 -8 8 -17 -7 -24 -4 -40 9 -50 16
-12 16 -11 2 7 -14 19 -14 19 3 6 10 -8 16 -20 13 -28 -3 -8 2 -13 12 -13 10
0 13 -3 7 -8 -13 -9 -19 -35 -6 -28 10 7 24 -22 16 -34 -3 -4 2 -13 10 -20 18
-15 20 -34 3 -25 -7 4 -5 0 6 -9 10 -8 15 -19 11 -25 -3 -6 2 -11 12 -12 10 0
13 -3 6 -6 -9 -3 -5 -13 12 -31 13 -14 22 -29 19 -34 -3 -4 0 -8 6 -8 6 0 8
-5 4 -12 -6 -9 -3 -9 9 0 14 12 16 11 12 -7 -2 -13 1 -18 9 -15 8 3 16 -2 19
-10 4 -11 1 -13 -11 -9 -13 4 -12 2 3 -10 11 -9 27 -17 35 -17 10 -1 9 -4 -5
-10 -11 -5 -14 -9 -7 -9 7 -1 11 -5 8 -9 -2 -4 -1 -14 4 -22 5 -9 5 -19 -2
-27 -7 -9 -7 -13 1 -13 6 0 11 -6 11 -14 0 -17 20 -25 54 -22 14 2 26 -1 26
-7 0 -5 9 -7 21 -4 15 4 19 2 15 -9 -3 -9 1 -14 13 -14 10 0 22 -7 25 -16 3
-8 11 -12 17 -8 8 5 9 3 5 -5 -6 -9 -13 -8 -29 6 -18 14 -17 12 2 -10 14 -15
32 -27 41 -27 9 0 23 -11 30 -25 7 -14 15 -23 18 -20 3 2 0 11 -6 18 -9 10 -8
14 3 14 7 0 13 -5 12 -11 -1 -5 3 -10 8 -11 13 0 62 -35 51 -35 -5 0 -18 7
-28 17 -10 9 -18 12 -18 6 0 -13 46 -37 58 -29 5 3 17 -3 27 -14 10 -11 23
-17 29 -13 6 4 4 -2 -4 -12 -9 -11 -10 -16 -2 -11 6 4 12 3 12 -3 0 -6 7 -7
17 -4 12 5 14 3 8 -7 -6 -10 -4 -12 9 -7 10 4 15 3 11 -3 -3 -6 1 -10 10 -10
10 0 13 -5 9 -12 -4 -7 -4 -10 1 -6 4 4 17 2 29 -5 11 -6 28 -12 36 -12 8 -1
14 -6 13 -12 -1 -6 4 -14 13 -17 10 -4 13 -2 8 7 -6 9 -5 9 8 0 8 -7 19 -9 24
-5 4 4 2 -2 -6 -12 -8 -11 -10 -17 -3 -13 6 4 17 2 25 -5 7 -7 19 -13 27 -13
8 0 16 -6 19 -12 2 -7 -1 -13 -8 -13 -6 0 -8 5 -4 12 5 7 3 8 -6 3 -18 -11 15
-35 41 -30 17 4 24 -6 20 -28 -1 -5 3 -6 9 -2 6 3 8 12 4 18 -3 7 4 1 16 -13
12 -14 19 -19 15 -13 -4 9 -1 11 9 7 9 -3 14 -10 11 -14 -3 -5 5 -10 17 -12
13 -2 22 -9 20 -16 -1 -8 2 -11 8 -7 6 4 18 -2 28 -12 9 -11 14 -14 10 -8 -5
7 -2 12 6 12 8 0 13 -8 11 -17 -2 -9 1 -23 5 -30 5 -8 4 -22 -1 -32 -7 -12 -6
-18 1 -18 6 0 8 -5 5 -10 -10 -16 -11 -170 -2 -170 5 0 5 -6 0 -12 -4 -7 -6
-21 -5 -30 2 -10 -3 -18 -10 -18 -11 0 -11 -2 0 -9 11 -6 10 -10 -3 -15 -14
-5 -15 -9 -5 -21 9 -11 9 -15 1 -15 -9 0 -9 -5 -1 -20 8 -15 8 -20 -1 -20 -8
0 -8 -4 1 -15 10 -12 9 -16 -5 -21 -13 -5 -14 -9 -3 -15 11 -7 11 -9 -1 -9
-11 0 -11 -3 0 -17 8 -9 10 -14 4 -11 -5 3 -16 0 -23 -8 -10 -11 -10 -14 0
-14 8 0 9 -3 3 -8 -5 -4 -10 -11 -11 -17 -1 -29 -17 -85 -24 -85 -5 0 -7 -8
-5 -17 1 -10 -3 -27 -9 -38 -7 -11 -11 -35 -9 -52 l3 -33 -93 -1 c-50 -1 -96
-1 -100 0 -5 1 -6 -3 -2 -9 3 -5 3 -10 -2 -11 -41 -4 -73 -3 -73 2 0 11 -54
-1 -92 -22 -10 -5 -18 -6 -18 -2 0 5 -25 6 -55 5 -38 -3 -53 -7 -48 -15 4 -7
-1 -6 -10 2 -11 9 -17 10 -17 2 0 -7 -13 -10 -35 -8 -27 3 -35 1 -36 -12 0 -9
-3 -11 -5 -4 -3 7 -12 9 -20 6 -7 -3 -11 -10 -8 -15 4 -6 -1 -6 -13 0 -10 6
-25 7 -32 3 -7 -5 -21 -6 -31 -4 -10 3 -28 -1 -40 -7 -13 -7 -20 -8 -16 -2 3
6 1 14 -5 18 -7 4 -9 3 -6 -3 4 -6 0 -16 -8 -23 -9 -7 -15 -8 -15 -2 0 5 -9 8
-20 5 -11 -3 -17 -10 -13 -17 4 -6 -1 -5 -10 3 -14 11 -17 11 -18 0 -1 -8 -1
-18 0 -22 1 -5 -3 -6 -9 -2 -6 3 -8 12 -4 18 3 7 -2 3 -10 -7 -9 -11 -16 -17
-16 -13 0 4 -11 2 -24 -3 -17 -6 -26 -5 -30 3 -3 9 -5 9 -5 0 -1 -7 -10 -13
-20 -13 -11 0 -23 -5 -26 -10 -5 -8 -11 -7 -21 1 -12 9 -13 9 -9 -3 5 -11 -1
-14 -25 -13 -16 1 -30 -2 -30 -7 0 -4 -10 -8 -23 -8 -13 0 -28 -5 -35 -12 -9
-9 -12 -9 -12 1 0 11 -3 11 -15 1 -8 -7 -15 -8 -15 -3 0 5 -9 9 -20 9 -11 0
-20 -4 -20 -9 0 -4 -4 -5 -10 -2 -5 3 -10 1 -10 -5 0 -6 -5 -8 -12 -4 -8 5 -9
2 -5 -10 5 -14 3 -15 -13 -6 -16 9 -18 7 -15 -10 3 -17 0 -20 -15 -15 -10 3
-21 1 -25 -5 -4 -6 -14 -9 -22 -6 -8 3 -12 2 -9 -3 9 -14 -20 -21 -34 -8 -10
9 -12 8 -7 -5 4 -12 1 -18 -9 -18 -9 0 -12 -5 -8 -12 5 -9 3 -9 -9 1 -14 11
-18 11 -23 -3 -4 -10 -13 -15 -20 -12 -8 3 -14 1 -14 -5 0 -6 -4 -7 -10 -4 -5
3 -10 -2 -10 -12 0 -15 -2 -16 -10 -3 -7 12 -10 12 -10 1 0 -8 -6 -11 -15 -7
-9 3 -18 -1 -22 -9 -4 -12 -8 -13 -20 -4 -11 10 -13 9 -11 -2 2 -8 -3 -13 -10
-11 -7 1 -15 -5 -18 -13 -3 -8 -10 -12 -15 -9 -5 3 -9 0 -9 -6 0 -6 -4 -9 -9
-6 -5 3 -11 -3 -14 -14 -3 -13 -11 -18 -26 -15 -12 2 -19 0 -16 -6 4 -5 -1
-12 -9 -15 -9 -3 -13 -10 -10 -16 3 -5 -2 -18 -12 -29 -13 -15 -20 -16 -31 -7
-11 9 -13 7 -9 -15 3 -18 1 -24 -8 -21 -7 3 -19 -3 -27 -12 -12 -16 -12 -17 1
-10 13 6 13 5 0 -6 -9 -7 -14 -21 -12 -30 3 -14 -1 -16 -15 -11 -16 6 -17 5
-3 -12 9 -11 10 -16 3 -11 -8 4 -13 2 -13 -4 0 -6 -4 -9 -9 -6 -9 6 -13 -158
-4 -180 3 -8 11 -14 18 -14 6 0 20 -9 30 -20 18 -20 18 -21 -3 -27 -12 -3 -22
-9 -22 -14 0 -5 -5 -9 -11 -9 -5 0 -7 5 -3 12 4 7 3 8 -4 4 -6 -4 -9 -13 -6
-21 4 -9 0 -12 -14 -8 -11 2 -23 0 -26 -6 -5 -7 -1 -8 10 -4 12 4 15 3 10 -5
-4 -7 -16 -12 -27 -12 -10 0 -19 -5 -19 -11 0 -5 5 -7 12 -3 7 5 8 3 4 -5 -5
-7 -10 -10 -14 -7 -3 3 -11 -2 -19 -12 -14 -16 -14 -16 -8 3 6 19 5 19 -14 -2
-12 -12 -21 -26 -21 -31 0 -5 -7 -15 -15 -22 -8 -7 -12 -17 -8 -23 4 -6 1 -7
-6 -3 -9 6 -8 13 6 29 l18 22 -23 -19 c-12 -11 -20 -21 -18 -24 5 -5 -8 -23
-44 -59 -20 -20 -22 -26 -10 -34 12 -8 11 -10 -5 -8 -43 3 -50 0 -29 -17 10
-8 13 -12 5 -8 -11 5 -13 3 -8 -9 3 -9 1 -19 -5 -23 -7 -4 -8 -3 -4 4 4 7 2
12 -3 12 -10 0 -16 -22 -12 -43 1 -5 -3 -6 -9 -2 -6 3 -7 12 -3 18 4 7 -1 6
-11 -2 -10 -9 -16 -24 -13 -37 3 -16 0 -21 -11 -17 -11 5 -13 1 -7 -15 5 -18
2 -22 -16 -22 -22 0 -22 0 -3 -15 14 -11 15 -14 2 -9 -20 7 -45 -31 -25 -39 9
-4 9 -6 -1 -6 -7 -1 -10 -5 -7 -11 3 -6 -1 -7 -9 -4 -12 5 -16 0 -16 -20 0
-14 -4 -26 -9 -26 -5 0 -11 -10 -13 -23 -2 -12 -10 -22 -18 -22 -8 0 -15 -9
-16 -21 -1 -27 -13 -46 -24 -39 -5 3 -12 0 -16 -6 -4 -7 -3 -9 3 -6 6 4 14 0
17 -8 3 -9 -3 -20 -14 -27 -11 -7 -20 -16 -20 -21 0 -4 4 -5 10 -2 6 3 7 -1 4
-9 -3 -9 -10 -14 -14 -13 -4 1 -8 -2 -8 -7 0 -5 -6 -13 -14 -17 -9 -6 -10 -9
-1 -9 7 0 10 -7 7 -15 -4 -8 -10 -15 -16 -15 -5 0 -6 5 -2 12 4 7 3 8 -5 4 -7
-5 -8 -13 -4 -19 10 -15 10 -38 0 -54 -5 -7 -5 -18 -2 -23 3 -6 -1 -10 -11
-10 -13 0 -14 -3 -5 -14 10 -12 8 -17 -9 -26 -16 -9 -19 -15 -10 -25 8 -9 8
-15 0 -20 -5 -3 -10 -15 -10 -26 0 -10 -6 -19 -14 -19 -9 0 -12 -7 -9 -19 3
-10 0 -28 -6 -39 -8 -15 -8 -22 2 -25 7 -3 5 -6 -5 -6 -11 -1 -15 -6 -12 -16
4 -8 1 -15 -5 -15 -6 0 -11 -9 -11 -20 0 -11 -5 -20 -11 -20 -8 0 -8 -4 0 -14
9 -10 8 -16 -4 -26 -12 -10 -13 -16 -3 -28 8 -10 9 -13 2 -9 -7 4 -14 0 -18
-8 -3 -8 0 -15 6 -15 7 0 6 -5 -2 -15 -6 -8 -9 -19 -5 -25 3 -5 -1 -10 -10
-10 -13 0 -14 -4 -4 -21 6 -12 7 -19 1 -15 -5 3 -12 -1 -16 -9 -3 -8 0 -15 6
-15 7 0 3 -6 -7 -14 -16 -12 -17 -16 -6 -30 11 -14 11 -16 -2 -16 -11 0 -13
-6 -9 -22 3 -11 1 -19 -4 -16 -5 4 -9 -5 -9 -18 0 -13 4 -24 8 -24 4 0 2 -10
-5 -23 -7 -12 -11 -28 -9 -36 1 -8 -2 -17 -8 -20 -6 -4 -11 -21 -13 -39 -1
-18 -6 -32 -11 -32 -5 0 -4 -6 2 -13 6 -8 8 -16 5 -20 -11 -11 -11 -57 0 -57
6 0 5 -4 -3 -9 -7 -5 -10 -14 -7 -20 4 -6 2 -11 -5 -11 -7 0 -10 -3 -6 -6 3
-3 2 -16 -3 -29 -6 -15 -4 -27 3 -35 9 -10 9 -11 0 -6 -7 4 -13 2 -13 -3 0 -6
-1 -14 -2 -18 -10 -42 -14 -83 -8 -83 4 0 5 -11 2 -25 -2 -14 -9 -25 -16 -25
-6 0 -4 -5 4 -10 8 -5 10 -10 4 -10 -7 0 -14 -9 -17 -20 -3 -11 -1 -20 4 -20
6 0 5 -9 -1 -21 -8 -15 -8 -24 0 -34 8 -9 8 -15 0 -20 -6 -4 -7 -12 -1 -23 6
-12 3 -24 -11 -42 -11 -13 -16 -26 -11 -27 9 -3 8 -91 -1 -100 -3 -3 -1 -15 5
-26 7 -12 7 -17 1 -13 -5 3 -12 -1 -15 -8 -3 -8 -1 -17 6 -20 7 -2 6 -5 -4 -5
-15 -1 -20 -34 -6 -47 3 -4 2 -15 -3 -25 -7 -12 -6 -19 3 -23 9 -5 9 -7 0 -12
-7 -3 -13 -16 -13 -29 0 -13 -6 -26 -12 -28 -10 -4 -10 -6 0 -6 10 -1 10 -6 2
-21 -6 -11 -8 -25 -5 -30 3 -6 -2 -10 -11 -10 -14 0 -15 -3 -6 -12 7 -7 8 -17
1 -30 -6 -12 -6 -18 0 -18 6 0 8 -7 5 -15 -4 -8 -11 -12 -18 -8 -6 3 -3 -3 7
-14 14 -16 15 -23 6 -29 -8 -5 -10 -3 -5 7 4 8 0 5 -8 -5 -9 -12 -13 -28 -10
-39 4 -14 3 -17 -6 -12 -8 5 -11 3 -8 -6 3 -8 1 -22 -4 -33 -8 -14 -7 -17 4
-11 10 6 10 5 1 -5 -8 -9 -9 -19 -2 -32 8 -14 6 -18 -6 -18 -9 0 -13 -5 -9
-11 3 -6 0 -15 -7 -20 -12 -7 -12 -9 0 -9 10 0 10 -6 -4 -26 -9 -15 -13 -24
-8 -21 5 4 10 0 10 -8 0 -8 -4 -12 -8 -9 -4 2 -10 0 -14 -6 -3 -5 -1 -10 5
-10 7 0 8 -5 3 -12 -11 -17 -11 -30 -1 -50 6 -12 3 -20 -11 -28 -13 -7 -18
-17 -15 -33 6 -29 -5 -79 -16 -72 -5 3 -12 0 -16 -6 -4 -8 -3 -9 4 -5 7 4 12
2 12 -3 0 -6 -4 -11 -9 -11 -5 0 -11 -18 -13 -40 -2 -23 1 -40 7 -40 6 0 6 -3
-1 -8 -6 -4 -14 -20 -18 -35 -4 -15 -10 -25 -15 -22 -5 2 -9 -5 -9 -18 0 -12
-2 -39 -4 -59 -2 -21 1 -40 7 -42 6 -3 5 -5 -2 -5 -7 -1 -10 -11 -7 -27 3 -18
1 -23 -7 -18 -9 5 -10 2 -6 -9 3 -10 2 -17 -4 -17 -6 0 -9 -8 -7 -17 2 -10 -5
-26 -16 -37 -13 -13 -15 -20 -6 -26 9 -5 8 -9 -3 -13 -15 -6 -17 -30 -4 -43 4
-4 2 -13 -4 -21 -9 -9 -8 -13 0 -13 9 0 9 -5 1 -20 -8 -14 -8 -20 0 -20 8 0 8
-6 0 -20 -8 -15 -8 -20 1 -20 8 0 6 -7 -4 -18 -9 -10 -15 -28 -12 -40 2 -13
-1 -22 -8 -22 -7 0 -6 -4 3 -10 9 -6 11 -10 3 -10 -7 0 -10 -7 -7 -15 4 -9 0
-15 -7 -15 -11 0 -11 -3 1 -10 8 -5 10 -10 4 -10 -15 0 -25 -38 -13 -46 6 -3
5 -11 -2 -20 -7 -9 -8 -14 -1 -14 5 0 8 -9 5 -20 -3 -11 -10 -20 -15 -20 -6 0
-4 -8 3 -17 7 -10 9 -15 4 -10 -10 8 -46 -63 -39 -75 3 -5 -1 -8 -8 -9 -7 0
-4 -4 7 -9 17 -7 18 -9 2 -9 -15 -1 -17 -9 -12 -74 6 -94 7 -97 18 -97 5 0 4
-6 -2 -14 -9 -10 -9 -16 -1 -21 8 -5 8 -10 0 -20 -8 -10 -8 -15 0 -20 8 -5 8
-11 -1 -21 -9 -11 -9 -14 0 -14 9 0 9 -5 1 -20 -8 -14 -8 -20 0 -20 8 0 8 -6
0 -20 -8 -15 -8 -20 1 -20 8 0 9 -4 0 -13 -8 -10 -7 -17 1 -25 9 -9 9 -12 0
-12 -9 0 -10 -5 -2 -19 7 -14 6 -21 -3 -24 -9 -4 -9 -6 1 -6 6 -1 12 -10 12
-20 0 -11 5 -23 11 -27 8 -4 7 -9 -2 -15 -11 -7 -10 -9 4 -9 10 0 15 -5 12
-11 -4 -6 1 -17 11 -24 16 -12 557 -14 3689 -15 2296 0 3675 4 3680 9 6 6 8
53 5 111 -3 58 -1 105 5 111 5 6 4 9 -5 9 -10 0 -11 3 -3 11 6 6 7 25 3 49 -4
24 -3 43 3 49 8 8 7 11 -3 11 -11 0 -11 3 -2 12 7 7 8 17 1 30 -7 13 -6 18 2
18 9 0 9 3 0 14 -6 8 -14 27 -16 42 -7 48 -10 58 -19 73 -6 10 -5 12 2 7 7 -4
12 -3 12 3 0 5 -6 14 -12 18 -7 4 -14 15 -15 23 -1 8 -4 26 -8 40 -4 14 -7 31
-7 38 -1 6 -6 12 -12 13 -6 0 -2 4 9 9 18 8 19 9 1 9 -11 1 -16 6 -13 15 3 8
3 17 -1 21 -4 4 -8 11 -8 16 -1 5 -2 13 -3 18 0 5 -8 17 -17 25 -9 9 -11 16
-4 16 6 0 8 5 5 10 -4 6 -10 8 -13 6 -4 -2 -7 8 -6 22 1 15 -4 33 -10 41 -8
11 -8 13 1 7 9 -5 11 -2 7 8 -3 9 -10 16 -14 16 -4 0 -11 7 -14 16 -3 8 -2 12
4 9 6 -3 10 -1 10 4 0 6 -5 11 -11 11 -5 0 -7 4 -4 10 3 5 1 10 -6 10 -9 0 -9
3 0 14 9 10 8 15 -4 20 -8 3 -15 10 -15 16 0 6 6 8 13 5 6 -4 1 3 -13 15 -14
12 -20 19 -13 16 6 -4 15 -2 18 4 4 6 3 10 -2 9 -4 -1 -14 -1 -22 0 -11 1 -11
4 0 18 8 9 9 14 4 11 -14 -8 -34 37 -25 53 5 7 2 19 -7 27 -12 12 -12 16 -1
23 9 6 9 9 1 9 -6 0 -10 9 -8 20 2 11 0 18 -5 15 -5 -3 -11 -1 -15 5 -3 5 0
10 7 10 8 1 7 5 -5 14 -12 10 -15 16 -7 21 7 4 8 11 2 18 -10 13 -27 77 -24
90 1 4 -2 7 -8 7 -5 0 -7 6 -4 14 3 8 0 17 -6 21 -9 6 -9 10 1 16 11 7 9 9 -6
9 -17 0 -17 2 -5 10 11 7 11 10 2 10 -7 0 -11 4 -7 9 3 5 1 12 -5 16 -6 4 -7
11 -4 17 4 6 0 14 -7 19 -11 7 -11 9 -1 9 7 0 10 5 7 10 -4 6 -12 7 -18 3 -7
-4 -6 0 2 10 12 15 10 18 -10 26 -22 9 -22 10 -4 11 11 1 14 4 7 7 -6 2 -10 9
-6 14 3 5 0 9 -6 9 -7 0 -8 6 -2 17 11 22 4 46 -10 37 -7 -5 -8 -2 -4 5 5 7 0
18 -10 26 -12 9 -14 14 -6 15 8 0 10 5 5 12 -8 14 -8 12 -17 88 -4 30 -12 58
-19 62 -9 6 -9 8 0 8 7 0 10 7 7 15 -4 8 -11 12 -17 8 -6 -3 -7 -1 -3 5 9 15
-4 83 -14 77 -5 -3 -6 4 -3 15 3 10 -2 26 -10 35 -9 8 -14 24 -12 35 2 11 -1
20 -7 20 -6 0 -8 9 -5 20 3 13 1 18 -6 13 -6 -4 -8 0 -4 10 3 10 2 17 -4 17
-6 0 -6 7 1 19 7 14 7 22 0 26 -8 5 -8 11 0 20 8 10 8 15 -1 21 -8 5 -9 3 -4
-6 5 -8 4 -11 -3 -6 -6 3 -9 15 -7 26 2 11 -1 20 -6 20 -6 0 -6 8 1 20 8 14 8
20 0 20 -7 0 -8 6 -2 16 10 18 4 66 -8 59 -4 -2 -5 6 -3 19 3 13 0 27 -7 31
-8 5 -8 10 1 21 9 11 9 14 -1 14 -8 0 -10 3 -7 6 3 4 1 16 -5 28 -6 11 -13 36
-14 55 -2 19 -7 38 -12 43 -5 5 -6 25 -2 43 4 20 4 35 -2 37 -5 2 -10 13 -11
26 0 12 -5 22 -9 22 -4 0 -5 9 -3 21 2 11 -4 27 -15 36 -14 13 -17 20 -8 30 7
9 7 13 -1 13 -7 0 -9 4 -6 10 3 5 1 10 -6 10 -8 0 -8 4 1 15 10 12 10 15 0 15
-7 0 -10 7 -7 15 4 8 2 17 -3 20 -5 3 -7 14 -5 25 2 11 0 22 -6 25 -5 4 -9 11
-9 16 0 6 6 7 13 3 9 -6 9 -4 -1 8 -7 9 -14 30 -15 47 -1 17 -6 31 -10 31 -5
0 -6 4 -3 8 3 5 -1 20 -9 35 -8 15 -9 27 -4 27 6 0 6 7 -1 19 -7 13 -7 20 1
23 5 2 1 13 -11 26 -19 20 -19 22 -3 22 14 0 15 2 4 9 -7 5 -10 14 -7 20 4 6
2 11 -4 11 -6 0 -9 4 -6 9 4 5 0 12 -6 14 -7 3 -4 6 7 7 20 1 20 1 0 10 -21 8
-26 43 -10 70 5 9 4 11 -3 6 -8 -5 -12 1 -12 16 0 13 -7 36 -15 51 -8 15 -10
25 -5 22 6 -4 10 -1 10 4 0 6 -5 11 -11 11 -5 0 -7 5 -4 10 3 6 2 10 -3 10 -6
0 -13 7 -16 16 -4 9 -2 13 5 8 7 -4 7 1 -1 16 -6 12 -9 24 -6 28 3 3 -1 13
-10 23 -9 10 -14 25 -11 34 4 8 3 15 -2 15 -4 0 -8 7 -9 15 -1 8 -3 22 -4 30
-1 11 -5 12 -15 3 -10 -8 -12 -7 -8 5 4 8 1 18 -4 22 -6 3 -9 11 -6 16 4 5 0
9 -7 10 -7 0 -4 4 7 9 18 8 18 9 2 9 -10 1 -15 6 -12 11 3 6 2 10 -3 10 -6 0
-8 9 -5 21 4 12 0 25 -8 30 -11 7 -9 9 6 9 19 1 19 1 2 11 -9 6 -15 14 -12 20
4 5 1 9 -4 9 -6 0 -11 11 -11 24 0 14 -5 28 -11 31 -6 4 -8 13 -5 20 3 8 -3
19 -12 27 -15 12 -16 11 -3 -4 9 -12 10 -18 2 -18 -11 0 -14 9 -14 43 0 9 -3
17 -7 17 -4 0 -7 7 -8 15 -1 8 -3 22 -4 30 -1 8 -6 11 -11 8 -6 -4 -8 0 -4 10
3 10 2 17 -3 17 -6 0 -10 -5 -10 -12 0 -6 -3 -8 -6 -5 -4 4 -1 13 5 21 10 11
7 19 -11 37 -13 12 -17 19 -10 15 23 -13 12 12 -14 33 -15 12 -21 21 -13 21 8
0 6 5 -6 13 -10 8 -15 19 -11 25 4 7 2 12 -4 12 -6 0 -8 4 -5 10 3 5 1 10 -6
10 -7 0 -10 3 -6 6 9 9 -25 44 -36 37 -6 -3 -7 -1 -3 6 4 6 13 9 19 5 7 -3 4
1 -7 10 -10 8 -15 20 -10 27 5 8 3 10 -6 4 -10 -6 -12 -4 -6 10 5 15 4 16 -8
6 -14 -12 -21 -3 -27 34 -1 6 -9 16 -18 23 -14 11 -14 11 4 6 18 -5 18 -4 3 6
-10 6 -15 17 -11 28 5 14 3 14 -9 -2 -12 -15 -17 -16 -23 -6 -5 9 -4 11 3 6 7
-4 12 -1 12 9 0 10 -5 13 -12 9 -7 -5 -9 -2 -5 9 4 12 2 14 -10 10 -11 -4 -14
-2 -9 5 4 7 2 12 -6 12 -9 0 -9 3 2 10 11 7 12 10 2 10 -8 0 -12 6 -9 13 2 6
-3 18 -12 25 -12 10 -13 12 -1 6 12 -7 13 -5 3 8 -7 8 -9 19 -5 23 4 5 -1 5
-11 2 -15 -6 -16 -4 -7 13 7 13 7 21 -2 26 -7 5 -8 3 -3 -7 8 -12 6 -12 -8 0
-20 16 -23 36 -4 25 10 -6 10 -4 0 7 -16 16 -17 49 -2 49 5 0 7 -5 3 -12 -4
-7 -3 -8 5 -4 9 6 9 11 -1 24 -10 12 -10 14 0 8 6 -4 12 -3 12 3 0 5 -6 12
-12 15 -7 3 -3 3 8 1 14 -4 24 0 28 10 3 9 2 13 -4 10 -15 -10 -12 5 6 22 8 9
12 19 7 22 -11 8 -11 61 -1 61 5 0 4 9 -2 20 -6 12 -7 20 -1 20 10 0 9 19 -2
38 -5 6 -6 16 -3 21 3 4 -1 16 -8 27 -8 10 -12 24 -9 31 3 7 -1 13 -8 13 -12
0 -12 2 -1 9 11 6 10 10 -3 15 -10 3 -15 12 -11 21 3 10 -1 15 -12 15 -13 0
-14 2 -4 9 11 6 7 13 -14 30 -14 11 -22 21 -17 21 5 0 15 -6 22 -12 11 -11 11
-9 2 9 -8 15 -17 20 -28 16 -10 -4 -14 -2 -10 4 8 13 -17 36 -27 26 -4 -4 -4
1 0 11 5 14 4 17 -4 12 -7 -4 -12 -2 -12 3 0 6 -7 11 -16 11 -12 0 -15 6 -11
21 4 16 3 18 -9 8 -13 -11 -18 -6 -15 14 1 5 -8 11 -20 14 -16 5 -18 8 -7 15
9 7 7 8 -9 5 -13 -3 -26 0 -30 5 -3 7 -1 8 5 4 7 -4 12 -5 12 -2 0 4 -22 16
-50 28 -27 12 -50 26 -50 30 0 5 -4 6 -10 3 -5 -3 -10 -1 -10 4 0 6 -3 10 -7
10 -25 -4 -35 3 -29 19 5 14 3 13 -9 -3 -15 -19 -16 -19 -13 5 2 17 -1 24 -11
22 -7 -1 -19 2 -25 8 -7 5 -16 7 -19 3 -4 -3 -7 -1 -7 5 0 7 -4 12 -10 12 -5
0 -7 -8 -3 -17 5 -15 3 -14 -10 2 -8 11 -13 23 -11 26 2 4 -6 5 -18 1 -15 -4
-19 -2 -13 7 6 10 3 11 -14 2 -15 -8 -21 -9 -21 -1 0 6 -4 8 -10 5 -5 -3 -10
0 -10 7 0 9 -3 9 -10 -2 -8 -12 -10 -12 -10 -1 0 8 -7 11 -20 8 -11 -3 -20 -1
-20 4 0 6 -8 5 -20 -1 -15 -8 -20 -8 -20 1 0 7 -3 9 -7 6 -3 -4 -13 -1 -21 6
-13 9 -14 9 -8 0 5 -9 2 -11 -9 -7 -10 4 -12 10 -6 18 7 8 0 11 -22 12 -56 2
-109 13 -123 25 -11 9 -14 9 -14 0 0 -9 -5 -9 -20 -1 -12 6 -51 13 -87 15 -48
3 -72 9 -89 24 -15 13 -24 16 -24 8 0 -8 -4 -7 -10 3 -5 8 -10 11 -10 5 0 -5
-5 -3 -10 5 -7 11 -10 11 -10 2 0 -10 -5 -10 -20 -2 -11 6 -20 7 -20 2 0 -5
-7 -9 -15 -9 -8 0 -15 5 -15 10 0 5 -7 6 -16 3 -9 -4 -24 -1 -32 6 -12 10 -14
10 -8 1 5 -9 2 -11 -8 -7 -9 3 -16 10 -16 15 0 5 -11 4 -25 -1 -16 -6 -26 -6
-31 1 -4 7 -10 6 -19 -1 -10 -8 -15 -8 -20 0 -5 8 -11 8 -21 -1 -11 -9 -14 -9
-14 0 0 9 -5 9 -20 1 -15 -8 -20 -8 -20 1 0 8 -4 8 -15 -1 -8 -7 -15 -8 -15
-3 0 5 -6 10 -12 11 -42 5 -95 13 -105 17 -7 2 -13 -1 -13 -7 0 -7 -4 -7 -14
1 -8 7 -17 8 -20 3 -3 -5 -23 -6 -46 -2 -25 4 -40 4 -40 -3 0 -5 -6 -4 -14 2
-9 8 -16 8 -20 2 -4 -6 -18 -6 -35 -1 -16 4 -32 6 -35 2 -3 -3 -6 3 -6 13 0
13 -3 15 -12 7 -10 -8 -13 -3 -12 21 1 21 -6 37 -18 46 -13 9 -16 17 -10 23
11 11 5 41 -7 34 -3 -2 -6 14 -5 36 0 25 -4 42 -13 45 -20 8 -16 23 5 16 16
-5 16 -5 -1 8 -10 8 -20 30 -22 48 -3 19 -9 39 -14 44 -7 7 -7 16 0 29 7 12 6
18 -1 18 -6 0 -8 5 -5 10 3 6 1 10 -5 10 -6 0 -8 4 -5 10 3 5 1 18 -5 29 -5
11 -6 22 -1 25 4 3 5 23 1 45 -4 25 -3 44 3 50 8 8 7 11 -3 11 -10 0 -11 3 -3
11 6 6 8 23 3 43 -4 19 -3 41 2 50 5 9 6 21 3 26 -3 6 -1 10 6 10 7 0 9 3 6 7
-11 11 14 32 30 26 11 -4 14 -2 9 5 -7 12 29 36 43 28 5 -3 11 0 14 8 3 8 16
16 29 18 13 2 22 9 20 16 -2 10 2 10 20 1 21 -11 22 -11 9 5 -12 14 -12 16 2
10 10 -3 21 3 32 20 9 13 22 23 29 20 8 -3 16 2 20 11 3 10 12 15 19 13 14 -5
48 27 39 37 -4 3 2 3 12 -1 15 -6 17 -4 11 7 -8 12 -6 12 9 0 15 -12 17 -12
14 0 -2 8 4 13 15 13 9 -1 17 5 17 14 0 8 3 12 7 9 3 -4 12 1 20 11 8 9 12 12
9 5 -4 -6 -2 -15 4 -18 6 -4 10 -3 9 2 -4 23 2 32 19 26 9 -3 14 -3 11 1 -3 3
6 19 20 35 19 22 29 26 39 18 10 -8 12 -7 10 4 -2 8 4 13 15 13 9 -1 17 5 17
13 0 9 6 13 15 9 10 -3 15 1 15 12 0 15 2 15 10 2 9 -14 14 -7 11 14 -3 13 20
36 30 30 5 -3 20 6 33 20 26 29 45 35 25 9 -11 -16 -11 -16 1 -5 8 7 15 18 15
25 1 7 7 11 14 9 7 -1 10 2 6 8 -3 5 -1 10 4 10 6 0 10 6 8 13 -1 7 7 12 20
11 18 -1 21 2 13 16 -8 14 -5 17 15 14 14 -1 23 2 19 7 -3 5 -10 7 -15 4 -5
-3 -6 1 -3 10 4 9 13 14 20 11 9 -3 11 0 7 11 -5 12 -2 15 9 11 10 -4 15 -1
14 10 0 9 4 16 11 15 7 -2 10 4 7 12 -4 10 0 15 10 15 14 0 15 4 5 21 -7 13
-7 19 -1 15 6 -4 17 1 24 9 7 9 21 25 30 35 9 10 14 21 11 24 -3 3 2 12 11 21
9 9 16 25 16 36 0 10 4 19 10 19 5 0 7 7 4 15 -4 9 0 15 9 15 11 0 13 6 9 22
-4 16 -2 19 9 13 12 -8 12 -6 0 8 -10 13 -10 17 -1 17 7 0 10 8 7 19 -3 14 0
19 12 16 10 -2 18 3 18 10 0 8 -4 12 -8 9 -4 -2 -11 1 -15 7 -4 7 -3 9 3 6 6
-4 16 0 23 8 9 11 9 15 1 15 -7 0 -6 9 5 25 9 14 21 22 28 18 6 -4 5 1 -3 10
-9 12 -10 17 -2 17 7 0 9 5 6 10 -3 6 -1 10 6 10 7 0 9 10 6 25 -3 18 2 30 17
40 11 8 15 15 9 15 -7 0 -10 7 -7 15 4 8 10 13 14 10 5 -3 6 5 2 17 -4 16 -2
19 9 13 12 -8 12 -6 1 8 -12 14 -11 16 8 12 19 -4 20 -2 8 12 -9 12 -9 15 0 9
7 -4 12 -2 12 5 0 6 8 9 20 6 11 -3 20 0 20 6 0 8 3 8 11 0 8 -8 21 -7 46 3
19 8 32 11 29 5 -4 -5 -2 -13 4 -16 6 -4 10 -3 9 2 -4 20 2 33 15 33 7 0 20 8
27 17 12 14 12 16 0 8 -10 -5 -12 -4 -7 4 6 9 11 9 21 1 9 -8 12 -5 10 13 -2
15 2 24 11 24 11 0 11 -3 2 -16 -7 -9 -2 -7 10 4 13 11 19 21 13 23 -6 2 -9 8
-6 12 3 5 12 7 21 3 9 -3 14 0 12 8 -2 8 2 13 8 12 6 -1 11 6 10 15 0 9 1 17
4 17 10 0 38 30 34 37 -2 3 3 14 12 22 9 9 13 23 10 31 -3 8 -2 14 2 14 20 -3
33 2 27 11 -3 6 1 10 10 10 13 0 14 4 4 21 -6 12 -7 19 -1 15 5 -3 12 1 16 9
3 8 11 15 18 14 10 0 10 -2 1 -6 -7 -2 -13 -10 -13 -16 0 -7 4 -7 12 1 7 7 13
20 13 30 0 10 9 18 23 20 12 2 22 8 22 13 0 6 -5 7 -12 3 -7 -4 -8 -3 -4 5 4
6 11 9 16 6 12 -7 33 22 25 36 -6 8 -1 8 15 -1 20 -11 21 -10 10 10 -11 20
-10 21 10 10 15 -8 20 -8 16 -1 -4 6 -3 11 3 11 6 0 8 6 5 14 -3 8 0 17 7 22
8 4 10 3 5 -4 -4 -7 -3 -12 3 -12 5 0 11 10 13 23 2 12 9 21 17 19 12 -3 12 0
1 12 -8 11 -9 16 -1 16 6 0 11 7 11 15 0 8 4 15 10 15 5 0 7 7 4 15 -4 9 0 15
10 15 10 0 13 6 10 15 -4 9 0 15 10 15 9 0 16 5 16 11 0 5 -5 7 -11 3 -7 -4
-7 1 1 15 6 13 10 41 9 65 -2 23 1 47 5 54 4 7 2 12 -4 12 -8 0 -7 6 1 21 8
16 8 24 -2 33 -9 8 -10 8 -4 -3 6 -10 4 -12 -4 -7 -7 5 -10 10 -7 13 3 3 1 14
-5 24 -7 13 -6 19 1 19 8 0 8 6 0 20 -6 11 -7 20 -1 20 11 0 9 33 -2 41 -4 3
-9 16 -10 27 -1 12 -5 22 -9 22 -4 0 -5 9 -3 19 2 12 -5 26 -21 36 -13 8 -24
25 -24 36 0 11 -4 17 -10 14 -5 -3 -10 -1 -10 5 0 6 -5 8 -12 4 -8 -5 -9 -2
-5 10 4 9 3 15 -2 11 -5 -3 -16 1 -23 9 -11 10 -19 11 -33 4 -13 -8 -16 -7
-11 1 6 10 -6 15 -26 12 -5 0 -8 4 -8 10 0 8 -4 8 -13 0 -10 -8 -17 -7 -25 1
-9 9 -12 9 -12 -1 0 -11 -3 -11 -15 -1 -8 6 -20 8 -26 4 -8 -5 -9 -3 -5 5 5 8
3 11 -5 10 -8 -2 -24 1 -37 5 -17 6 -20 11 -13 20 6 7 12 23 14 37 3 18 9 23
26 21 11 -2 21 2 21 8 0 6 -5 8 -12 4 -6 -4 -8 -3 -5 3 4 6 18 9 31 8 19 -3
23 1 18 13 -5 15 -4 16 13 2 12 -10 16 -10 11 -2 -4 7 -2 19 4 27 10 12 10 15
0 15 -10 0 -10 3 0 15 7 8 17 12 23 8 6 -3 7 -1 3 6 -4 6 -12 8 -18 5 -7 -4
-7 0 1 13 5 11 11 72 12 136 1 65 5 117 10 117 5 0 6 7 3 15 -4 8 -1 15 6 15
9 0 10 3 1 14 -9 11 -8 15 4 20 10 4 14 14 11 31 -3 14 -2 25 2 25 4 0 7 11 7
25 0 14 -4 25 -10 25 -5 0 -4 4 3 9 7 4 14 17 15 29 1 15 5 18 13 11 8 -6 16
-4 25 8 9 11 10 14 2 9 -7 -4 -13 -3 -13 3 0 5 8 12 19 16 12 4 17 13 15 31
-2 21 0 23 12 13 12 -10 13 -9 8 5 -4 11 -1 16 10 16 14 0 15 4 6 20 -8 15 -8
18 3 14 8 -3 20 3 28 12 12 15 12 17 0 9 -10 -5 -12 -4 -7 3 4 7 13 12 21 12
8 0 17 5 21 12 4 7 3 8 -4 4 -22 -13 -12 15 12 38 14 12 26 29 28 37 2 7 12
20 23 27 16 10 16 12 3 8 -10 -3 -18 -1 -18 4 0 6 5 10 11 10 6 0 9 7 6 15 -4
8 -2 17 4 21 6 4 6 11 -2 20 -8 10 -8 14 0 14 7 0 8 8 1 25 -5 13 -5 27 -1 29
5 3 5 23 1 45 -4 25 -3 44 3 50 8 8 7 11 -3 11 -10 0 -11 3 -3 11 6 6 8 23 3
44 -4 19 -5 36 -2 39 2 3 -1 12 -8 21 -10 12 -10 15 1 15 11 1 11 3 -1 13 -17
14 -24 37 -12 37 10 0 9 30 -1 47 -4 6 -2 15 3 18 7 5 5 12 -7 21 -14 11 -15
13 -3 14 10 0 11 3 3 8 -12 8 -21 127 -10 139 4 3 2 12 -4 20 -7 7 -7 13 -2
13 6 0 7 19 3 48 -5 26 -6 50 -4 54 2 4 0 9 -5 13 -6 3 -8 12 -4 20 3 8 0 15
-6 15 -9 0 -9 5 -1 20 7 14 7 20 0 20 -5 0 -10 14 -10 30 0 17 -4 30 -9 30
-10 0 -9 19 2 36 4 7 0 17 -8 24 -8 7 -13 16 -10 20 3 5 1 11 -4 14 -5 3 -7
15 -4 26 3 13 0 20 -8 20 -11 0 -11 2 1 10 11 7 11 10 2 10 -7 0 -10 5 -7 10
3 6 2 10 -3 10 -5 0 -9 7 -10 15 -1 8 -3 22 -4 30 -1 8 -7 16 -14 19 -8 3 -11
11 -8 19 3 8 -2 20 -10 27 -9 7 -13 16 -10 21 3 5 -5 23 -17 41 -20 28 -21 31
-5 25 16 -6 17 -5 6 8 -7 8 -16 12 -21 9 -5 -3 -8 -2 -7 3 1 4 -6 24 -16 43
l-17 35 20 -25 c11 -14 21 -21 21 -16 0 4 -17 24 -37 43 -30 28 -33 33 -13 24
l25 -12 -22 20 c-13 10 -23 24 -23 31 0 6 -5 8 -12 4 -8 -5 -9 -2 -5 10 4 10
3 15 -3 11 -6 -3 -10 1 -10 10 0 9 -4 13 -10 10 -9 -6 -15 8 -11 29 1 5 -6 3
-15 -5 -10 -8 -15 -9 -11 -3 4 7 -5 17 -23 24 -16 7 -27 16 -24 21 3 5 -2 9
-11 9 -10 0 -13 5 -9 12 4 7 3 8 -4 4 -6 -4 -19 1 -29 11 -10 10 -25 18 -33
18 -8 0 -16 10 -18 23 -2 12 -8 20 -13 17 -5 -4 -9 -1 -9 5 0 6 -4 8 -10 5 -5
-3 -7 0 -4 8 3 8 0 18 -7 23 -7 4 -10 3 -5 -4 3 -6 2 -14 -4 -17 -6 -4 -10 -3
-9 2 3 19 -2 34 -10 28 -5 -3 -13 0 -17 6 -4 7 -3 9 4 5 6 -3 14 -2 17 4 4 6
3 10 -2 9 -20 -3 -34 2 -28 11 4 6 3 10 -2 9 -21 -4 -33 3 -53 34 -12 17 -20
25 -17 16 3 -9 -1 -16 -8 -16 -7 0 -10 8 -7 19 3 14 0 17 -13 11 -13 -4 -16
-3 -11 5 4 7 2 12 -4 12 -6 0 -8 5 -4 13 5 7 0 6 -11 -3 -17 -14 -18 -14 -5
10 7 14 9 22 5 18 -5 -4 -15 -2 -24 5 -14 11 -15 10 -2 -8 8 -11 0 -5 -17 13
-18 18 -36 30 -42 27 -10 -6 -15 9 -10 30 1 5 -1 7 -5 3 -8 -8 -35 16 -35 31
0 6 -7 8 -15 4 -9 -3 -24 2 -34 11 -10 9 -21 13 -26 9 -4 -5 -5 -2 -1 5 7 11
11 11 25 0 9 -7 6 -3 -7 10 -14 13 -31 21 -38 18 -7 -3 -16 0 -20 6 -4 7 -3 8
4 4 7 -4 12 -3 12 2 0 4 -16 14 -35 22 -19 7 -37 20 -40 29 -5 13 -7 14 -15 1
-8 -13 -10 -12 -10 3 0 9 5 17 12 17 6 0 8 3 5 6 -4 4 -13 1 -22 -6 -12 -10
-15 -10 -15 0 0 7 -7 10 -16 6 -8 -3 -12 -2 -9 4 3 6 2 10 -4 10 -6 0 -22 11
-36 25 -14 14 -25 20 -25 13 0 -7 -8 -1 -17 12 -30 44 -39 50 -53 37 -10 -9
-11 -9 -6 1 5 7 1 12 -9 12 -10 0 -15 5 -12 14 4 10 -3 12 -25 10 -27 -4 -29
-2 -17 13 10 12 10 14 2 9 -7 -4 -13 -2 -13 3 0 6 -3 10 -7 10 -22 -4 -33 2
-27 13 5 7 2 9 -8 6 -13 -5 -45 28 -41 42 1 3 -7 6 -18 6 -16 0 -15 -3 9 -24
l27 -23 -37 23 c-20 12 -34 26 -32 30 5 8 -11 12 -36 8 -8 -1 -12 1 -8 5 9 10
-19 38 -31 31 -4 -3 -16 3 -26 14 -10 11 -22 17 -26 14 -5 -3 -6 1 -3 9 3 9
-2 13 -18 13 -12 -1 -26 8 -32 19 -7 13 -24 21 -46 23 -19 2 -38 9 -42 15 -5
8 -8 8 -8 -2 0 -11 -4 -10 -16 5 -8 10 -13 14 -10 7 4 -8 -4 -6 -24 3 -16 9
-34 13 -40 9 -5 -3 -10 -1 -10 5 0 7 -7 10 -15 7 -8 -4 -17 -2 -20 3 -3 4 -13
7 -23 5 -9 -1 -23 2 -29 8 -9 6 -13 6 -13 -1 0 -6 -13 -4 -32 5 -42 21 -51 22
-348 27 -231 4 -256 3 -269 -12 -13 -16 -13 -16 -8 1 4 9 5 17 4 17 -1 -1 -17
-7 -36 -15z m-1720 -1038 c-10 -9 -11 -8 -5 6 3 10 9 15 12 12 3 -3 0 -11 -7
-18z m-29 -29 c-7 -7 -12 -8 -12 -2 0 14 12 26 19 19 2 -3 -1 -11 -7 -17z
m4293 -558 c3 -5 1 -10 -4 -10 -6 0 -11 5 -11 10 0 6 2 10 4 10 3 0 8 -4 11
-10z m-4561 -806 c3 -8 2 -12 -4 -9 -6 3 -10 10 -10 16 0 14 7 11 14 -7z m47
-231 c13 -16 12 -17 -3 -4 -10 7 -18 15 -18 17 0 8 8 3 21 -13z m359 -2038
c14 -19 14 -19 -2 -6 -10 7 -18 18 -18 24 0 6 1 8 3 6 1 -2 9 -13 17 -24z
m-370 -2649 c0 -2 -7 -7 -16 -10 -8 -3 -12 -2 -9 4 6 10 25 14 25 6z m4695
-225 c3 -5 2 -12 -3 -15 -5 -3 -9 1 -9 9 0 17 3 19 12 6z m240 -840 c3 -5 2
-12 -3 -15 -5 -3 -9 1 -9 9 0 17 3 19 12 6z"/>
<path d="M5816 12138 c3 -5 10 -6 15 -3 13 9 11 12 -6 12 -8 0 -12 -4 -9 -9z"/>
<path d="M9083 11715 c0 -8 4 -12 9 -9 5 3 6 10 3 15 -9 13 -12 11 -12 -6z"/>
<path d="M9467 8939 c7 -7 15 -10 18 -7 3 3 -2 9 -12 12 -14 6 -15 5 -6 -5z"/>
<path d="M5058 8293 c7 -3 16 -2 19 1 4 3 -2 6 -13 5 -11 0 -14 -3 -6 -6z"/>
<path d="M9308 8193 c7 -3 16 -2 19 1 4 3 -2 6 -13 5 -11 0 -14 -3 -6 -6z"/>
<path d="M5550 7836 c0 -2 7 -7 16 -10 8 -3 12 -2 9 4 -6 10 -25 14 -25 6z"/>
<path d="M8316 6932 c-3 -5 1 -9 9 -9 8 0 12 4 9 9 -3 4 -7 8 -9 8 -2 0 -6 -4
-9 -8z"/>
<path d="M6210 6881 c0 -5 7 -12 16 -15 14 -5 15 -4 4 9 -14 17 -20 19 -20 6z"/>
<path d="M8181 6827 c-13 -21 -12 -21 5 -5 10 10 16 20 13 22 -3 3 -11 -5 -18
-17z"/>
<path d="M7685 6520 c-3 -5 -1 -10 4 -10 6 0 11 5 11 10 0 6 -2 10 -4 10 -3 0
-8 -4 -11 -10z"/>
<path d="M8580 5721 c0 -6 4 -13 10 -16 6 -3 7 1 4 9 -7 18 -14 21 -14 7z"/>
<path d="M4896 5274 c-5 -14 -4 -15 9 -4 17 14 19 20 6 20 -5 0 -12 -7 -15
-16z"/>
<path d="M3900 2639 c0 -5 5 -7 10 -4 6 3 10 8 10 11 0 2 -4 4 -10 4 -5 0 -10
-5 -10 -11z"/>
</g>
</svg>
